# xmcd CD database file
#
# Track frame offsets:
#	150
#	19125
#	42419
#
# Disc length: 863 seconds
#
# Revision: 0
# Processed by: cddbd v1.5.1PL2 Copyright (c) Steve Scherf et al.
# Submitted via: CDex 1.60beta1
#
DISCID=1e035d03
DTITLE=夢題 - [L-NOTE]DEATH-NOTE imagesongs for "L"
DYEAR=1900
DGENRE=未分類 (日本)
TTITLE0=陰陽
TTITLE1=ミライニカエル
TTITLE2=雲を見ると何色にもなれる貴方の白さを思って私は嬉しくなるのです。
EXTD=
EXTT0=
EXTT1=
EXTT2=
PLAYORDER=
